<?xml version="1.0" encoding="utf-8"?>
<!-- Generator: Adobe Illustrator 25.2.0, SVG Export Plug-In . SVG Version: 6.00 Build 0)  -->
<svg version="1.1" id="Layer_1" xmlns="http://www.w3.org/2000/svg" xmlns:xlink="http://www.w3.org/1999/xlink" x="0px" y="0px"
	 viewBox="0 0 700 700" style="enable-background:new 0 0 700 700;" xml:space="preserve">
<style type="text/css">
	.st0{fill:#2A307A;}
</style>
<symbol  id="f" viewBox="-6.9 -8 13.9 16.1">
	<path d="M5.9-7.2v3.7c-1-0.4-2.1-0.8-3-1C1.9-4.7,1-4.8,0.1-4.8c-0.9,0-1.6,0.1-2.1,0.3c-0.4,0.2-0.7,0.6-0.7,1.1
		c0,0.4,0.2,0.7,0.5,0.9c0.3,0.2,1,0.4,1.8,0.5l0.9,0.1C3.1-1.5,4.8-1,5.6-0.3c0.9,0.7,1.3,1.9,1.3,3.4c0,1.6-0.6,2.9-1.8,3.7
		C3.9,7.6,2.1,8-0.2,8c-1,0-2.1-0.1-3.2-0.2c-1.1-0.2-2.2-0.4-3.3-0.7V3.4c1,0.5,2,0.8,3,1.1c1,0.2,2.1,0.3,3.1,0.3
		c1,0,1.7-0.1,2.2-0.4C2,4.1,2.3,3.7,2.3,3.2c0-0.4-0.2-0.8-0.5-1c-0.3-0.2-1-0.4-2-0.5l-0.9-0.1c-2.2-0.3-3.7-0.8-4.6-1.5
		c-0.9-0.7-1.3-1.9-1.3-3.4c0-1.6,0.6-2.8,1.7-3.6C-4.2-7.6-2.5-8-0.2-8C0.7-8,1.7-8,2.7-7.8C3.7-7.7,4.7-7.5,5.9-7.2L5.9-7.2z"/>
</symbol>
<path class="st0" d="M282.8,470.4c-5.6,0-11.2-2.2-15.7-6.7c-9-9-9-23,0-31.9L418.9,280L267.1,127.7c-9-9-9-23,0-31.9
	c9-9,23-9,31.9,0l168,168c4.5,4.5,6.7,10.1,6.7,15.7c0,6.2-2.2,11.8-6.7,15.7l-168,168C294,468.2,288.4,470.4,282.8,470.4
	L282.8,470.4z"/>
<g>
	<defs>
		<rect id="SVGID_1_" x="472" y="644" width="700" height="700"/>
	</defs>
	<clipPath id="SVGID_2_">
		<use xlink:href="#SVGID_1_"  style="overflow:visible;"/>
	</clipPath>
	<g style="clip-path:url(#SVGID_2_);">
		
			<use xlink:href="#f"  width="13.9" height="16.1" x="-6.9" y="-8" transform="matrix(1 0 0 1 480.4215 636.3517)" style="overflow:visible;"/>
	</g>
</g>
</svg>
