<?xml version="1.0" encoding="utf-8"?>
<!-- Generator: Adobe Illustrator 25.2.0, SVG Export Plug-In . SVG Version: 6.00 Build 0)  -->
<svg version="1.1" id="Layer_1" xmlns="http://www.w3.org/2000/svg" xmlns:xlink="http://www.w3.org/1999/xlink" x="0px" y="0px"
	 viewBox="0 0 639.8 722.8" style="enable-background:new 0 0 639.8 722.8;" xml:space="preserve">
<style type="text/css">
	.st0{fill:#8694FC;}
</style>
<g>
	<path class="st0" d="M73.6,193.4c146.1,0,291.5,0,437.3,0c-4.6,23.4-9.1,46.1-13.6,69.3c-146.1,0-291.7,0-437.6,0
		c-7.1,35.9-14.1,71.4-21.2,107.6c146.1,0,291.5,0,437.3,0c-8,40.3-15.9,79.9-24,119.5c-0.3,1.5-2.2,3.2-3.7,3.8
		c-56.5,18.9-113.1,37.6-169.7,56.2c-1.9,0.6-4.4,0.6-6.2-0.1c-48.9-18.5-97.7-37.2-146.5-55.8c-2.6-1-3.2-2.2-2.6-4.8
		c1.6-7,2.9-14,4.2-21.1c1.8-9.4,3.7-18.8,5.5-28.1c-0.9-0.2-1.2-0.4-1.5-0.4c-34.2,0-68.3,0-102.5-0.1c-3.3,0-3.6,1.8-4.1,4.3
		c-4.2,21.2-8.4,42.5-12.7,63.7c-4,20.2-8,40.4-12,60.8c1.5,0.7,2.6,1.2,3.8,1.7c81.8,31.3,163.5,62.6,245.4,93.8
		c2.1,0.8,4.9,0.8,7.1,0c94.5-31.3,189-62.7,283.5-93.9c2.9-1,4.3-2.4,4.9-5.3c9.3-47,18.7-94.1,28-141.1
		c20.6-103.2,41.1-206.4,61.7-309.6c1.8-9.2,3.6-18.4,5.4-27.8c-181.9,0-363.2,0-544.7,0C88,121.6,80.9,157,73.6,193.4z"/>
</g>
</svg>
