<?xml version="1.0" encoding="utf-8"?>
<!-- Generator: Adobe Illustrator 25.2.0, SVG Export Plug-In . SVG Version: 6.00 Build 0)  -->
<svg version="1.1" id="Layer_1" xmlns="http://www.w3.org/2000/svg" xmlns:xlink="http://www.w3.org/1999/xlink" x="0px" y="0px"
	 viewBox="0 0 128 128" style="enable-background:new 0 0 128 128;" xml:space="preserve">
<style type="text/css">
	.st0{display:none;fill:none;}
	.st1{display:none;}
	.st2{display:inline;fill-rule:evenodd;clip-rule:evenodd;}
	
		.st3{display:inline;fill-rule:evenodd;clip-rule:evenodd;fill:#FFFFFF;fill-opacity:0;stroke:#BABABA;stroke-width:2;stroke-opacity:0.5;}
	.st4{display:none;fill-rule:evenodd;clip-rule:evenodd;fill:url(#SVGID_1_);}
	.st5{fill-rule:evenodd;clip-rule:evenodd;fill:#2A307A;}
</style>
<g>
	<path class="st0" d="M0,0h128v128H0V0z"/>
	<g class="st1">
		<circle id="b" class="st2" cx="64" cy="64" r="56"/>
	</g>
	<g class="st1">
		<circle id="b_1_" class="st3" cx="64" cy="64" r="56"/>
	</g>
	
		<linearGradient id="SVGID_1_" gradientUnits="userSpaceOnUse" x1="-1773.5178" y1="8.4821" x2="-1773.5178" y2="9.4821" gradientTransform="matrix(112 0 0 112 198698 -942)">
		<stop  offset="0" style="stop-color:#FEFEFE"/>
		<stop  offset="1" style="stop-color:#E0E0E0"/>
	</linearGradient>
	<circle class="st4" cx="64" cy="64" r="56"/>
	<g>
		<g>
			<path id="e_2_" class="st5" d="M12,65.3c0,23,14.9,42.5,35.6,49.4c2.6,0.5,3.6-1.1,3.6-2.5c0-1.2-0.1-5.3-0.1-9.7
				c-13.1,2.4-16.4-3.2-17.5-6.1c-0.6-1.5-3.1-6.1-5.3-7.3c-1.8-1-4.4-3.4-0.1-3.4c4.1-0.1,7,3.8,8,5.3c4.7,7.9,12.2,5.7,15.1,4.3
				c0.5-3.4,1.8-5.7,3.3-7C43.1,87,31,82.5,31,62.6c0-5.7,2-10.3,5.3-14c-0.5-1.3-2.3-6.6,0.5-13.8c0,0,4.4-1.4,14.3,5.3
				c4.2-1.2,8.6-1.8,13-1.8s8.8,0.6,13,1.8c9.9-6.8,14.3-5.3,14.3-5.3c2.9,7.2,1,12.5,0.5,13.8c3.3,3.6,5.3,8.3,5.3,14
				c0,20-12.2,24.4-23.7,25.7c1.9,1.6,3.5,4.7,3.5,9.6c0,7-0.1,12.6-0.1,14.3c0,1.4,1,3,3.6,2.5c20.6-6.9,35.5-26.4,35.5-49.4
				c0-28.8-23.3-52-52-52S12,36.6,12,65.3z"/>
		</g>
	</g>
</g>
</svg>
