<?xml version="1.0" encoding="utf-8"?>
<!-- Generator: Adobe Illustrator 25.2.0, SVG Export Plug-In . SVG Version: 6.00 Build 0)  -->
<svg version="1.1" id="Layer_1" xmlns="http://www.w3.org/2000/svg" xmlns:xlink="http://www.w3.org/1999/xlink" x="0px" y="0px"
	 viewBox="0 0 557 553" style="enable-background:new 0 0 557 553;" xml:space="preserve">
<style type="text/css">
	.st0{display:none;fill:#2A307A;}
	.st1{fill:#8694FC;}
	.st2{fill:#E1E5E2;}
</style>
<path class="st0" d="M266,485l149-41l35-394H266"/>
<g>
	<path class="st1" d="M77.3,484l-41-460h451l-41,460l-185,52"/>
	<g>
		<path class="st2" d="M262,223.1h-75l-5-58h80v-56h-1H120l1,15l14,156h127V223.1z M262,370.1h-1l-63-17l-4-45h-30h-26l7,89l116,32
			h1V370.1z"/>
		<path class="st2" d="M259.6,223v57h70l-7,73l-63,17v59l116-32l1-10l13-149l2-15h-16H259.6z M259.6,109v35v21l0,0h137l0,0l0,0l1-12
			l3-29l1-15H259.6z"/>
	</g>
</g>
</svg>
