<?xml version="1.0" encoding="utf-8"?>
<!-- Generator: Adobe Illustrator 25.2.0, SVG Export Plug-In . SVG Version: 6.00 Build 0)  -->
<svg version="1.1" id="Layer_1" xmlns="http://www.w3.org/2000/svg" xmlns:xlink="http://www.w3.org/1999/xlink" x="0px" y="0px"
	 viewBox="0 0 109 110" style="enable-background:new 0 0 109 110;" xml:space="preserve">
<style type="text/css">
	.st0{display:none;fill:none;}
	.st1{fill:#8694FC;}
</style>
<g>
	<g id="Layer_2_1_">
		<g id="Layer_9">
			<path class="st0" d="M52.4,75c-17.8,0-32.1-14.4-32.1-32.1s14.4-32.1,32.1-32.1s32.1,14.4,32.1,32.1l0,0
				C84.5,60.6,70.1,75,52.4,75z"/>
			<path id="XMLID_1_" class="st1" d="M34.4,37.2C30.7,42.5,31.2,49.4,34,55l0.2,0.4l0.1,0.2c0,0.1,0,0.1,0.1,0.2l0.2,0.3l0.3,0.5
				l0.2,0.3l0.3,0.5l0.1,0.2c0.1,0.2,0.3,0.4,0.5,0.7l0.1,0.1c0.1,0.2,0.3,0.4,0.4,0.5l0.2,0.2l0.4,0.5l0.1,0.2l0.5,0.6l0,0l0.5,0.6
				l0.2,0.2l0.4,0.4l0.2,0.2c0.2,0.2,0.4,0.4,0.6,0.5l0.7,0.5l0.2,0.2l0.5,0.3l0.2,0.2l0.5,0.4l0.2,0.2l0.5,0.3l0.2,0.1l0.8,0.5
				l0.2,0.1l0.6,0.3l0.3,0.2l0.4,0.2H45l0.2,0.1l0.7,0.3l0.1,0.1l0.8,0.3l0.2,0.1l0.7,0.3h0.1l0.8,0.3l0.2,0.1
				c0.3,0.1,0.5,0.2,0.8,0.2c17.8,3.2,23-10.7,23-10.7C68,62.3,60.3,63.8,53,62.1L52.2,62L52,61.9l-0.8-0.2h-0.1l-0.7-0.3l-0.2-0.1
				L49.4,61l-0.2-0.1l-0.6-0.3l-0.2-0.1c-0.2-0.1-0.3-0.2-0.5-0.3L47.6,60L47,59.7l-0.2-0.1L46,59.1L45.8,59l-0.5-0.4l-0.2-0.1
				l-0.5-0.4L44.5,58L44,57.7l-0.2-0.2L43.2,57h-0.1l-0.6-0.5l-0.2-0.2l-0.4-0.4l-0.2-0.2c-0.2-0.2-0.4-0.4-0.5-0.6l0,0
				c-0.2-0.2-0.4-0.4-0.5-0.6l-0.1-0.2l-0.4-0.5l-0.1-0.2L39.6,53c-4.1-5.5-5.5-13.2-2.3-19.5 M45.9,32.7c-2.7,3.8-2.5,9-0.5,13
				c0.4,0.7,0.7,1.4,1.2,2c0.4,0.6,0.8,1.2,1.4,1.7c0.2,0.2,0.4,0.4,0.6,0.6l0.2,0.2c0.2,0.2,0.4,0.4,0.6,0.6l0,0
				c0.2,0.2,0.5,0.4,0.7,0.6l0.2,0.1L51,52l0,0l0.3,0.2c0,0,0.1,0.1,0.2,0.1l0.5,0.3h0.1l0.5,0.3c0.1,0,0.1,0.1,0.2,0.1l0.3,0.2l0,0
				l0.7,0.3l0.2,0.1c0.2,0.1,0.4,0.2,0.6,0.2l0.2,0.1l0.5,0.2l0.2,0.1c0.3,0.1,0.5,0.2,0.8,0.2c13.8,2.4,17-8.2,17-8.2
				c-2.9,4.1-8.4,6.1-14.3,4.6l-0.8-0.2L58,50.5l-0.5-0.2l-0.3-0.1L56.7,50l-0.2-0.1l-0.7-0.3l-0.4-0.2l-0.2-0.1L54.8,49h-0.1
				l-0.6-0.3l-0.2-0.1l-0.4-0.2c-0.2-0.2-0.5-0.3-0.7-0.5l-0.2-0.1c-2.6-2-4.6-4.8-5.6-8c-1.1-3.3-0.7-7,1-10 M55.5,29.4
				c-1.5,2.3-1.8,5.2-0.6,7.7c1.2,2.7,3.5,4.8,6.2,5.9l0.3,0.1h0.2l0.5,0.1c7.6,1.5,9.7-3.9,10.2-4.7c-1.8,2.6-4.8,3.2-8.6,2.3
				c-0.3-0.1-0.6-0.2-0.9-0.3c-0.4-0.1-0.7-0.3-1.1-0.5c-0.7-0.3-1.3-0.7-1.9-1.1c-3.3-2.5-5.4-7.4-3.2-11.3"/>
		</g>
	</g>
</g>
</svg>
