<?xml version="1.0" encoding="utf-8"?>
<!-- Generator: Adobe Illustrator 25.2.0, SVG Export Plug-In . SVG Version: 6.00 Build 0)  -->
<svg version="1.1" id="Layer_1" xmlns="http://www.w3.org/2000/svg" xmlns:xlink="http://www.w3.org/1999/xlink" x="0px" y="0px"
	 viewBox="0 0 233 150.9" style="enable-background:new 0 0 233 150.9;" xml:space="preserve">
<style type="text/css">
	.st0{fill-rule:evenodd;clip-rule:evenodd;fill:#8694FC;}
</style>
<path class="st0" d="M144.4,90.1c-19.7,0-23.8-9-23.8-16.6c0-0.7,0.6-1.3,1.3-1.3l0,0h5.8c0.6,0,1.2,0.5,1.3,1.1
	c0.9,5.9,3.5,8.9,15.4,8.9c9.5,0,13.5-2.2,13.5-7.2c0-2.9-1.2-5-15.9-6.5c-12.3-1.2-20-3.9-20-13.8c0-9.1,7.7-14.5,20.5-14.5
	c14.4,0,21.6,5,22.5,15.8c0,0.4-0.1,0.7-0.3,1c-0.3,0.3-0.6,0.4-1,0.4h-5.8c-0.6,0-1.1-0.4-1.3-1c-1.4-6.2-4.8-8.2-14.1-8.2
	c-10.4,0-11.6,3.6-11.6,6.3c0,3.3,1.4,4.2,15.4,6.1s20.5,4.4,20.5,14.1S158.6,90.1,144.4,90.1L144.4,90.1z M130.5,125.9
	c-1.7,0-3.3-0.4-4.7-1.3l-15-8.9c-2.2-1.3-1.2-1.7-0.4-2c2.4-0.7,4.7-1.8,6.8-3.1c0.4-0.2,0.8-0.1,1.1,0.1l11.5,6.8
	c0.4,0.2,1,0.2,1.4,0l45-26c0.4-0.3,0.7-0.7,0.7-1.2V38.4c0-0.5-0.3-1-0.7-1.2l-45-26c-0.4-0.3-1-0.3-1.4,0l-45,26
	c-0.4,0.3-0.7,0.7-0.7,1.2v52c0,0.5,0.3,1,0.7,1.2l12.3,7.1c6.7,3.3,10.8-0.6,10.8-4.6V42.9c0-0.7,0.6-1.3,1.3-1.3l0,0h5.8
	c0.7,0,1.3,0.6,1.3,1.3l0,0v51.3c0,8.9-4.9,14-13.3,14c-2.6,0-4.7,0-10.4-2.8l-11.9-6.8c-2.9-1.7-4.7-4.8-4.7-8.2v-52
	c0-3.4,1.8-6.5,4.7-8.2l45.1-26c3-1.6,6.5-1.6,9.5,0l45,26c2.9,1.7,4.8,4.9,4.7,8.3v52c0,3.4-1.8,6.5-4.7,8.2l-45,26
	C133.8,125.5,132.2,125.9,130.5,125.9L130.5,125.9L130.5,125.9z"/>
</svg>
