<?xml version="1.0" encoding="utf-8"?>
<!-- Generator: Adobe Illustrator 25.2.0, SVG Export Plug-In . SVG Version: 6.00 Build 0)  -->
<svg version="1.1" id="Layer_1" xmlns="http://www.w3.org/2000/svg" xmlns:xlink="http://www.w3.org/1999/xlink" x="0px" y="0px"
	 viewBox="0 0 122.9 47.5" style="enable-background:new 0 0 122.9 47.5;" xml:space="preserve">
<style type="text/css">
	.st0{fill:#8694FC;}
</style>
<g>
	<path class="st0" d="M34.1,40.8h20.7v-6.7h13.7V6.7H41.1v34H0V0h122.9v40.8H61.4v6.7H34.1V40.8L34.1,40.8z M109.2,13.4v20.7h7V6.7
		H75.1v27.4h13.7V13.4h6.7v20.7h7V13.4H109.2L109.2,13.4z M61.4,13.4v13.7h-6.7V13.4H61.4L61.4,13.4z M34.4,6.7H6.7v27.4h27.7V6.7
		L34.4,6.7z M27.4,13.4v20.7h-6.7V13.4H27.4L27.4,13.4z"/>
</g>
</svg>
