<?xml version="1.0" encoding="utf-8"?>
<!-- Generator: Adobe Illustrator 25.2.0, SVG Export Plug-In . SVG Version: 6.00 Build 0)  -->
<svg version="1.1" id="Layer_1" xmlns="http://www.w3.org/2000/svg" xmlns:xlink="http://www.w3.org/1999/xlink" x="0px" y="0px"
	 viewBox="0 0 331 295" style="enable-background:new 0 0 331 295;" xml:space="preserve">
<style type="text/css">
	.st0{fill:#8694FC;}
</style>
<g>
	<path class="st0" d="M155.9,21.1c-64.8,0-60.8,28.1-60.8,28.1l0.1,29.1h61.9V87H70.6c0,0-41.5-4.7-41.5,60.7s36.2,63.1,36.2,63.1
		H87v-30.4c0,0-1.2-36.2,35.6-36.2H184c0,0,34.5,0.6,34.5-33.3V55C218.4,55,223.7,21.1,155.9,21.1L155.9,21.1L155.9,21.1z
		 M121.8,40.7c6.2,0,11.1,5,11.1,11.1s-5,11.1-11.1,11.1c-6.2,0-11.1-5-11.1-11.1C110.7,45.6,115.6,40.7,121.8,40.7L121.8,40.7
		L121.8,40.7z"/>
	<path class="st0" d="M157.8,275.1c64.8,0,60.8-28.1,60.8-28.1l-0.1-29.1h-61.9v-8.7H243c0,0,41.5,4.7,41.5-60.7
		s-36.2-63.1-36.2-63.1h-21.6v30.4c0,0,1.2,36.2-35.6,36.2h-61.4c0,0-34.5-0.6-34.5,33.3v56C95.2,241.2,90,275.1,157.8,275.1
		L157.8,275.1L157.8,275.1z M191.9,255.5c-6.2,0-11.1-5-11.1-11.1c0-6.2,5-11.1,11.1-11.1c6.2,0,11.1,5,11.1,11.1
		C203,250.6,198,255.5,191.9,255.5L191.9,255.5L191.9,255.5z"/>
</g>
</svg>
