<?xml version="1.0" encoding="utf-8"?>
<!-- Generator: Adobe Illustrator 25.2.0, SVG Export Plug-In . SVG Version: 6.00 Build 0)  -->
<svg version="1.1" id="Layer_1" xmlns="http://www.w3.org/2000/svg" xmlns:xlink="http://www.w3.org/1999/xlink" x="0px" y="0px"
	 viewBox="0 0 30.6 24.3" style="enable-background:new 0 0 30.6 24.3;" xml:space="preserve">
<style type="text/css">
	.st0{fill:#8694FC;}
	.st1{fill:#8694FC;stroke:#8694FC;stroke-width:0.5;stroke-miterlimit:10;}
</style>
<path class="st0" d="M14.7,10.6c1.1,0,2.1,0.9,2.1,2.1c0,1.1-0.9,2.1-2.1,2.1c-1.1,0-2.1-0.9-2.1-2.1l0,0
	C12.6,11.5,13.6,10.6,14.7,10.6L14.7,10.6"/>
<path class="st1" d="M22.2,9.2L22.2,9.2C22,9.1,21.7,9,21.5,9c0-0.2,0.1-0.3,0.1-0.5c0.6-2.7,0.2-4.9-1.1-5.6
	c-1.2-0.7-3.2,0-5.1,1.8C15.2,4.9,15,5,14.8,5.2c-0.1-0.1-0.3-0.2-0.4-0.4c-2-1.9-4.1-2.6-5.4-1.9C7.8,3.6,7.5,5.6,8,8.2
	C8.1,8.5,8.1,8.7,8.2,9C7.8,9.1,7.6,9.2,7.3,9.3c-2.4,0.8-4,2.2-4,3.6s1.7,2.9,4.2,3.7c0.2,0.1,0.4,0.1,0.6,0.2
	C8,17.1,8,17.3,7.9,17.6c-0.5,2.5-0.1,4.5,1.1,5.2c1.2,0.7,3.3,0,5.3-1.8c0.2-0.1,0.3-0.3,0.5-0.4c0.2,0.2,0.4,0.4,0.6,0.6
	c2,1.7,3.9,2.4,5.1,1.7c1.2-0.7,1.6-2.9,1.1-5.5c0-0.2-0.1-0.4-0.1-0.6c0.1,0,0.3-0.1,0.4-0.1c2.6-0.9,4.4-2.3,4.4-3.7
	C26.3,11.4,24.7,10.1,22.2,9.2z M16,5.4c1.7-1.5,3.3-2.1,4-1.6l0,0c0.8,0.4,1.1,2.2,0.6,4.6c0,0.2-0.1,0.3-0.1,0.5
	c-1-0.2-2-0.4-3.1-0.5c-0.6-0.9-1.2-1.7-1.9-2.4C15.7,5.7,15.8,5.5,16,5.4z M10.1,14c0.2,0.4,0.4,0.8,0.7,1.2
	c0.2,0.4,0.5,0.8,0.7,1.2c-0.7-0.1-1.4-0.2-2.1-0.3C9.5,15.4,9.8,14.7,10.1,14z M10.1,11.7c-0.3-0.7-0.5-1.3-0.7-2
	c0.7-0.1,1.4-0.3,2.1-0.4c-0.3,0.4-0.5,0.8-0.8,1.2C10.5,10.9,10.3,11.3,10.1,11.7z M10.6,12.8c0.3-0.6,0.6-1.2,1-1.9l0,0
	c0.3-0.5,0.7-1.1,1.1-1.7c0.7-0.1,1.4-0.1,2.1-0.1c0.7,0,1.4,0,2.1,0.1c0.4,0.6,0.8,1.2,1.1,1.8c0.4,0.6,0.7,1.2,1,1.8
	c-0.3,0.6-0.6,1.3-1,1.9l0,0c-0.3,0.6-0.7,1.2-1.1,1.8c-0.7,0-1.4,0.1-2.1,0.1c-0.7,0-1.4,0-2.1-0.1c-0.4-0.6-0.8-1.2-1.1-1.8
	C11.2,14.1,10.9,13.5,10.6,12.8z M18.9,15.2c0.2-0.4,0.5-0.8,0.7-1.2l0,0c0.3,0.7,0.6,1.3,0.8,2c-0.7,0.2-1.4,0.3-2.1,0.4
	C18.4,16,18.6,15.6,18.9,15.2L18.9,15.2z M19.5,11.7c-0.2-0.4-0.4-0.8-0.7-1.2l0,0c-0.2-0.4-0.5-0.8-0.7-1.2
	c0.7,0.1,1.4,0.2,2.1,0.4C20,10.4,19.8,11,19.5,11.7z M14.8,6.5c0.5,0.6,0.9,1.1,1.4,1.7c-0.9,0-1.8,0-2.7,0
	C13.9,7.6,14.4,7,14.8,6.5z M9.5,3.7c0.8-0.4,2.5,0.2,4.3,1.6c0.1,0.1,0.2,0.2,0.3,0.3c-0.7,0.7-1.4,1.4-2,2.2
	C11.1,7.9,10,8.1,9,8.3c0-0.2,0-0.4-0.1-0.6l0,0C8.5,5.6,8.8,4.1,9.5,3.7z M8.4,15.8c-0.2-0.1-0.4-0.1-0.6-0.2
	c-1-0.3-1.9-0.8-2.7-1.4c-0.5-0.3-0.8-0.8-0.9-1.4c0-0.8,1.2-1.9,3.3-2.6C7.8,10.1,8,10,8.3,10c0.3,1,0.7,2,1.1,2.9
	C9.1,13.8,8.7,14.8,8.4,15.8z M13.7,20.3c-0.8,0.7-1.6,1.2-2.6,1.6l0,0c-0.5,0.2-1.1,0.3-1.6,0.1c-0.7-0.4-1-2-0.6-4.2
	c0-0.3,0.1-0.5,0.2-0.8c1,0.2,2.1,0.4,3.1,0.4c0.6,0.9,1.3,1.7,2,2.4C14,20,13.9,20.1,13.7,20.3z M14.8,19.2
	c-0.5-0.5-0.9-1.1-1.4-1.7c0.4,0,0.9,0,1.3,0c0.5,0,0.9,0,1.4,0C15.8,18.1,15.3,18.6,14.8,19.2L14.8,19.2z M20.8,20.5
	c0,0.6-0.3,1.1-0.8,1.4c-0.7,0.4-2.3-0.1-3.9-1.6c-0.2-0.2-0.4-0.3-0.6-0.5c0.7-0.8,1.3-1.6,1.9-2.4c1-0.1,2.1-0.2,3.1-0.5
	c0,0.2,0.1,0.4,0.1,0.6l0,0C20.9,18.5,21,19.5,20.8,20.5L20.8,20.5z M21.6,15.6L21.6,15.6c-0.1,0-0.3,0.1-0.4,0.1
	c-0.3-1-0.7-2-1.2-2.9c0.4-0.9,0.8-1.9,1.1-2.9c0.2,0.1,0.5,0.1,0.7,0.2c2.1,0.7,3.4,1.8,3.4,2.7C25.3,13.7,23.9,14.9,21.6,15.6
	L21.6,15.6z"/>
</svg>
